# xmcd
#
# Track frame offsets: 
#        150
#        15266
#        28836
#        43197
#        58792
#        71767
#        85366
#        100446
#        114170
#        127251
#        142675
#        156490
#        170201
#        184189
#        198432
#        213910
#        229010
#        243561
#        258889
#        271509
#        283885
#        299930
#        313072
#
# Disc length: 4342 seconds
#
# Revision: 0
# Processed by: cddbd v1.5.2PL0 Copyright (c) Steve Scherf et al.
# Submitted via: ExactAudioCopy v0.95b4
#
DISCID=6410f417
DTITLE=Bessie Smith - Queen of the Blues Volume 1 CD A - [178806-590292
DTITLE=6]
DYEAR=2007
DGENRE=Blues
TTITLE0=Downhearted Blues
TTITLE1=Gulf Coast Blues
TTITLE2=Aggravatin' Papa
TTITLE3=Beale Street Mama
TTITLE4=Baby Won't You Please Come Home
TTITLE5=Oh Daddy Blues
TTITLE6='Tain't Nobody's Business If I Do
TTITLE7=Keeps on Rainin'
TTITLE8=Mama's Got the Blues
TTITLE9=Outside of That
TTITLE10=Bleeding Hearted Blues
TTITLE11=Lady Luck Blues, Pt. 3
TTITLE12=Yodelin' Blues, Pt. 3
TTITLE13=Midnight Blues, Pt. 3
TTITLE14=If You Don't I Know Who Will
TTITLE15=Nobody in Town Can Bake a Sweet Jelly Roll Like Mine
TTITLE16=Jail House Blues
TTITLE17=St Louis Gal, Pt. 3
TTITLE18=Sam Jones Blues
TTITLE19=Graveyard Dream Blues
TTITLE20=Cemetary Blues
TTITLE21=Far Away Blues
TTITLE22=I'm Going Back to My Used to Be
EXTD=
EXTT0=
EXTT1=
EXTT2=
EXTT3=
EXTT4=
EXTT5=
EXTT6=
EXTT7=
EXTT8=
EXTT9=
EXTT10=
EXTT11=
EXTT12=
EXTT13=
EXTT14=
EXTT15=
EXTT16=
EXTT17=
EXTT18=
EXTT19=
EXTT20=
EXTT21=
EXTT22=
PLAYORDER=
